# xmcd
# 
# Track frame offsets:
#     150
#     12802
#     25473
#     39601
#     52903
#     62649
#     80411
#     93281
#     108955
#     123612
#     135854
#     143421
# 
# Disc length: 2163
# 
# Revision: 4
# Processed by: cddbd v1.5.2PL0 Copyright (c) Steve Scherf et al.
# Submitted via: fre:ac v1.0.31
# 
DISCID=8f08710c
DTITLE=Christmas - Yule Be Miserable
DYEAR=2003
DGENRE=Christmas
TTITLE0=Ramsey Lewis - Christmas Blues
TTITLE1=Louis Armstrong - Zat You, Santa Claus?
TTITLE2=Ella Fitzgerald - Santa Claus Got Stuck in My Chimney
TTITLE3=Billy Eckstine - Blue Christmas
TTITLE4=Spike Jones - My Birthday Comes on Christmas
TTITLE5=B.B. King - Merry Christmas, Baby
TTITLE6=Aaron Neville - Please Come Home for Christmas
TTITLE7=Billie Holiday - Stormy Blues
TTITLE8=Count Basie - Good Morning Blues
TTITLE9=Ella Fitzgerald - Baby, It's Cold Outside
TTITLE10=Spike Jones - Nuttin' for Christmas
TTITLE11=Eric Reed - Christmas Blues
EXTD=
EXTT0=
EXTT1=
EXTT2=
EXTT3=
EXTT4=
EXTT5=
EXTT6=
EXTT7=
EXTT8=
EXTT9=
EXTT10=
EXTT11=
PLAYORDER=
